<svg xmlns="http://www.w3.org/2000/svg" width="21.931" height="22.856" viewBox="0 0 21.931 22.856"><g transform="translate(-10.359 0.002)"><g transform="translate(10.359 -0.002)"><g transform="translate(0 0)"><path d="M31.233,11.722a.67.67,0,0,1,0-.592l.852-1.744a1.984,1.984,0,0,0-.856-2.635l-1.715-.91a.67.67,0,0,1-.348-.479l-.335-1.912A1.984,1.984,0,0,0,26.59,1.822l-1.922.272a.67.67,0,0,1-.563-.183L22.71.562a1.984,1.984,0,0,0-2.77,0l-1.4,1.35a.67.67,0,0,1-.563.183l-1.922-.272a1.984,1.984,0,0,0-2.241,1.628l-.335,1.912a.67.67,0,0,1-.348.479l-1.715.91a1.984,1.984,0,0,0-.856,2.635l.852,1.744a.67.67,0,0,1,0,.592l-.852,1.744A1.984,1.984,0,0,0,11.42,16.1l1.715.91a.67.67,0,0,1,.348.479l.335,1.912a1.983,1.983,0,0,0,1.956,1.649,2.038,2.038,0,0,0,.285-.02l1.922-.272a.67.67,0,0,1,.563.183l1.4,1.35a1.984,1.984,0,0,0,2.77,0l1.4-1.35a.67.67,0,0,1,.563-.183l1.922.272A1.984,1.984,0,0,0,28.831,19.4l.335-1.912a.67.67,0,0,1,.348-.479l1.715-.91a1.984,1.984,0,0,0,.856-2.635ZM18.688,5.494a2.417,2.417,0,1,1-2.417,2.417A2.42,2.42,0,0,1,18.688,5.494ZM17.441,16.242a.659.659,0,1,1-.932-.932l8.7-8.7a.659.659,0,1,1,.932.932Zm6.52,1.116a2.417,2.417,0,1,1,2.417-2.417A2.42,2.42,0,0,1,23.961,17.358Z" transform="translate(-10.359 0.002)" fill="#2382e2"/></g></g><g transform="translate(22.863 13.843)"><path d="M291.551,310.141a1.1,1.1,0,1,0,1.1,1.1A1.1,1.1,0,0,0,291.551,310.141Z" transform="translate(-290.452 -310.141)" fill="#2382e2"/></g><g transform="translate(17.59 6.812)"><g transform="translate(0)"><path d="M173.432,152.646a1.1,1.1,0,1,0,1.1,1.1A1.1,1.1,0,0,0,173.432,152.646Z" transform="translate(-172.333 -152.646)" fill="#2382e2"/></g></g></g></svg>