<svg xmlns="http://www.w3.org/2000/svg" xmlns:xlink="http://www.w3.org/1999/xlink" width="9.3" height="16.912" viewBox="0 0 9.3 16.912"><defs><clipPath id="a"><rect width="9.3" height="16.912" fill="#2382e2"/></clipPath></defs><g clip-path="url(#a)"><path d="M285.362,382.8l-2.169,0a3.809,3.809,0,0,0-4.011,4.116v1.9H277a.341.341,0,0,0-.341.341v2.75a.341.341,0,0,0,.341.341h2.181v6.939a.341.341,0,0,0,.341.341h2.845a.341.341,0,0,0,.341-.341v-6.939h2.549a.342.342,0,0,0,.342-.341v-2.75a.341.341,0,0,0-.342-.341h-2.55V387.2c0-.773.184-1.166,1.192-1.166h1.46a.341.341,0,0,0,.341-.341v-2.553a.342.342,0,0,0-.341-.342Zm0,0" transform="translate(-276.517 -382.813)" fill="#2382e2"/></g></svg>