<svg xmlns="http://www.w3.org/2000/svg" width="17.832" height="17.817" viewBox="0 0 17.832 17.817"><g transform="translate(-3.366 -3.372)"><path d="M21.1,3.614a.189.189,0,0,0-.141-.146c-2.331-.57-7.718,1.461-10.636,4.38A12.614,12.614,0,0,0,8.908,9.523a5.278,5.278,0,0,0-2.567.321c-2.164.951-2.794,3.437-2.97,4.5a.384.384,0,0,0,.42.446l3.475-.381a7.726,7.726,0,0,0,.047.784.778.778,0,0,0,.227.476l1.346,1.346a.778.778,0,0,0,.476.227,7.711,7.711,0,0,0,.78.047l-.381,3.471a.384.384,0,0,0,.446.42c1.067-.171,3.557-.8,4.5-2.965a5.3,5.3,0,0,0,.326-2.558,12.634,12.634,0,0,0,1.68-1.418C19.647,11.327,21.665,6.061,21.1,3.614ZM14.11,10.466a1.83,1.83,0,1,1,2.588,0A1.829,1.829,0,0,1,14.11,10.466Z" fill="#fff"/><path d="M9.738,25.421h0a1.626,1.626,0,0,1-.848.343,1.153,1.153,0,0,1-1.328-1.328,1.594,1.594,0,0,1,.339-.844l0,0a.143.143,0,0,0-.12-.244,1.97,1.97,0,0,0-1.153.561c-.771.771-.844,3.634-.844,3.634s2.867-.073,3.638-.844a1.957,1.957,0,0,0,.561-1.153A.147.147,0,0,0,9.738,25.421Z" transform="translate(-0.945 -7.799)" fill="#fff"/></g></svg>