<svg xmlns="http://www.w3.org/2000/svg" width="15.356" height="12.474" viewBox="0 0 15.356 12.474"><path d="M67.356,224.366a6.294,6.294,0,0,1-1.809.5,3.164,3.164,0,0,0,1.385-1.742,6.354,6.354,0,0,1-2,.765,3.153,3.153,0,0,0-5.368,2.872,8.943,8.943,0,0,1-6.492-3.291,3.154,3.154,0,0,0,.975,4.2,3.151,3.151,0,0,1-1.427-.4v.039a3.153,3.153,0,0,0,2.527,3.089,3.19,3.19,0,0,1-.83.11,3.02,3.02,0,0,1-.593-.059,3.152,3.152,0,0,0,2.942,2.188,6.32,6.32,0,0,1-3.912,1.346,6.7,6.7,0,0,1-.751-.043A8.956,8.956,0,0,0,65.791,226.4l-.011-.408a6.292,6.292,0,0,0,1.576-1.627Zm0,0" transform="translate(-52 -222.89)" fill="#2382e2"/></svg>