<svg xmlns="http://www.w3.org/2000/svg" width="15.219" height="10.711" viewBox="0 0 15.219 10.711"><path d="M187.625,334.809c-.549-.653-1.563-.919-3.5-.919h-7.031c-1.981,0-3.013.284-3.56.979-.534.678-.534,1.677-.534,3.059v2.635c0,2.678.633,4.038,4.093,4.038h7.031c1.68,0,2.611-.235,3.213-.811.617-.591.881-1.556.881-3.226v-2.635c0-1.458-.041-2.462-.593-3.118Zm-4.855,4.8-3.193,1.669a.491.491,0,0,1-.718-.435v-3.327a.491.491,0,0,1,.717-.436l3.193,1.658a.491.491,0,0,1,0,.871Zm0,0" transform="translate(-173 -333.89)" fill="#2382e2"/></svg>