<svg id="app_store_badge_black_1" xmlns="http://www.w3.org/2000/svg" width="172.632" height="57.706" viewBox="0 0 172.632 57.706">
  <g id="Сгруппировать_28" data-name="Сгруппировать 28" transform="translate(0 0)">
    <g id="Сгруппировать_26" data-name="Сгруппировать 26">
      <path id="Контур_86" data-name="Контур 86" d="M158.884,0H13.755c-.529,0-1.052,0-1.579,0-.442,0-.88.011-1.326.018A19.064,19.064,0,0,0,7.959.276a9.615,9.615,0,0,0-2.742.9,9.287,9.287,0,0,0-2.335,1.7,9.029,9.029,0,0,0-1.7,2.339,9.523,9.523,0,0,0-.9,2.746,18.745,18.745,0,0,0-.259,2.888C.008,11.3.007,11.74,0,12.182V45.528c.007.448.008.882.022,1.33A18.743,18.743,0,0,0,.28,49.746a9.5,9.5,0,0,0,.9,2.747,8.956,8.956,0,0,0,1.7,2.329,9.052,9.052,0,0,0,2.335,1.7,9.667,9.667,0,0,0,2.742.91,19.411,19.411,0,0,0,2.891.255c.446.01.884.015,1.326.015.528,0,1.05,0,1.579,0H158.884c.518,0,1.045,0,1.564,0,.44,0,.89-.006,1.33-.015a19.157,19.157,0,0,0,2.885-.255,9.816,9.816,0,0,0,2.753-.91,9.056,9.056,0,0,0,2.333-1.7,9.226,9.226,0,0,0,1.7-2.329,9.528,9.528,0,0,0,.893-2.747,19.483,19.483,0,0,0,.268-2.888c.006-.448.006-.882.006-1.33.011-.524.011-1.045.011-1.578V13.757c0-.528,0-1.052-.011-1.575,0-.442,0-.886-.006-1.329a19.483,19.483,0,0,0-.268-2.888,9.547,9.547,0,0,0-.893-2.746,9.328,9.328,0,0,0-4.038-4.039,9.763,9.763,0,0,0-2.753-.9,18.818,18.818,0,0,0-2.885-.255c-.44-.007-.89-.015-1.33-.018-.518,0-1.045,0-1.564,0Z" transform="translate(0 0)" fill="#a6a6a6"/>
      <path id="Контур_87" data-name="Контур 87" d="M11.8,56.056c-.44,0-.868-.006-1.3-.015a18.3,18.3,0,0,1-2.7-.235,8.488,8.488,0,0,1-2.39-.79A7.8,7.8,0,0,1,3.39,53.548a7.676,7.676,0,0,1-1.472-2.015,8.255,8.255,0,0,1-.783-2.391,17.908,17.908,0,0,1-.24-2.7c-.009-.3-.021-1.317-.021-1.317V11.795s.013-1,.021-1.291a17.846,17.846,0,0,1,.239-2.7,8.3,8.3,0,0,1,.784-2.4A7.752,7.752,0,0,1,3.381,3.389,8.029,8.029,0,0,1,5.4,1.914,8.4,8.4,0,0,1,7.79,1.129,18.157,18.157,0,0,1,10.5.893L11.8.875H160.055l1.317.018a17.867,17.867,0,0,1,2.681.235,8.567,8.567,0,0,1,2.41.79,8.07,8.07,0,0,1,3.484,3.491,8.314,8.314,0,0,1,.772,2.379,18.746,18.746,0,0,1,.251,2.723c0,.409,0,.847,0,1.284.011.541.011,1.056.011,1.575V43.562c0,.524,0,1.036-.011,1.551,0,.469,0,.9-.006,1.341a18.368,18.368,0,0,1-.247,2.674,8.279,8.279,0,0,1-.779,2.409,7.906,7.906,0,0,1-1.465,2,7.809,7.809,0,0,1-2.019,1.475,8.456,8.456,0,0,1-2.406.793,18.094,18.094,0,0,1-2.7.235c-.423.01-.865.015-1.295.015l-1.564,0Z" transform="translate(0.386 0.387)"/>
    </g>
    <g id="_Group_" data-name="&lt;Group&gt;" transform="translate(14.385 12.58)">
      <g id="_Group_2" data-name="&lt;Group&gt;">
        <g id="_Group_3" data-name="&lt;Group&gt;">
          <path id="_Path_" data-name="&lt;Path&gt;" d="M31.319,23.1a7.139,7.139,0,0,1,3.4-5.99A7.308,7.308,0,0,0,28.961,14c-2.423-.254-4.771,1.45-6.006,1.45-1.258,0-3.159-1.424-5.206-1.382A7.668,7.668,0,0,0,11.3,18c-2.79,4.831-.709,11.93,1.964,15.835,1.337,1.912,2.9,4.048,4.945,3.972,2-.083,2.748-1.276,5.164-1.276,2.393,0,3.094,1.276,5.18,1.228,2.147-.035,3.5-1.921,4.79-3.851a15.814,15.814,0,0,0,2.191-4.461A6.9,6.9,0,0,1,31.319,23.1Z" transform="translate(-9.972 -6.395)" fill="#fff"/>
          <path id="_Path_2" data-name="&lt;Path&gt;" d="M23.474,13.756A7.029,7.029,0,0,0,25.082,8.72a7.152,7.152,0,0,0-4.627,2.394,6.689,6.689,0,0,0-1.65,4.849,5.913,5.913,0,0,0,4.669-2.208Z" transform="translate(-6.068 -8.72)" fill="#fff"/>
        </g>
      </g>
      <g id="Сгруппировать_27" data-name="Сгруппировать 27" transform="translate(35.281 13.201)">
        <path id="Контур_88" data-name="Контур 88" d="M45.788,31.151H38.959l-1.64,4.842H34.427L40.9,18.078h3l6.468,17.915H47.426Zm-6.121-2.235h5.413l-2.668-7.858h-.075Z" transform="translate(-34.427 -17.779)" fill="#fff"/>
        <path id="Контур_89" data-name="Контур 89" d="M58.935,28.016c0,4.059-2.172,6.667-5.451,6.667a4.428,4.428,0,0,1-4.11-2.285h-.062v6.469H46.631V21.485h2.6v2.172h.049a4.633,4.633,0,0,1,4.159-2.309C56.749,21.348,58.935,23.969,58.935,28.016Zm-2.756,0c0-2.644-1.367-4.383-3.452-4.383-2.048,0-3.426,1.775-3.426,4.383,0,2.632,1.378,4.394,3.426,4.394,2.085,0,3.452-1.726,3.452-4.394Z" transform="translate(-29.025 -16.333)" fill="#fff"/>
        <path id="Контур_90" data-name="Контур 90" d="M68.9,28.016c0,4.059-2.172,6.667-5.451,6.667a4.428,4.428,0,0,1-4.11-2.285h-.062v6.469H56.6V21.485h2.6v2.172h.049A4.633,4.633,0,0,1,63.4,21.348C66.714,21.348,68.9,23.969,68.9,28.016Zm-2.756,0c0-2.644-1.367-4.383-3.452-4.383-2.048,0-3.426,1.775-3.426,4.383,0,2.632,1.378,4.394,3.426,4.394,2.085,0,3.452-1.726,3.452-4.394Z" transform="translate(-24.615 -16.333)" fill="#fff"/>
        <path id="Контур_91" data-name="Контур 91" d="M72.553,31.093c.2,1.777,1.924,2.943,4.283,2.943,2.26,0,3.886-1.167,3.886-2.768,0-1.391-.981-2.223-3.3-2.794L75.1,27.915c-3.29-.795-4.817-2.333-4.817-4.829,0-3.091,2.694-5.214,6.519-5.214,3.785,0,6.381,2.123,6.468,5.214H80.56c-.162-1.788-1.64-2.867-3.8-2.867S73.123,21.31,73.123,22.9c0,1.267.944,2.012,3.253,2.582l1.974.485c3.676.869,5.2,2.346,5.2,4.966,0,3.352-2.67,5.451-6.916,5.451-3.973,0-6.655-2.05-6.829-5.29Z" transform="translate(-18.767 -17.871)" fill="#fff"/>
        <path id="Контур_92" data-name="Контур 92" d="M84.755,19.3v3.091h2.484v2.123H84.755v7.2c0,1.119.5,1.64,1.589,1.64a8.377,8.377,0,0,0,.882-.062V35.4a7.362,7.362,0,0,1-1.489.124c-2.644,0-3.676-.993-3.676-3.526V24.514h-1.9V22.391h1.9V19.3Z" transform="translate(-14.183 -17.239)" fill="#fff"/>
        <path id="Контур_93" data-name="Контур 93" d="M86.065,28.023c0-4.11,2.42-6.692,6.195-6.692s6.2,2.582,6.2,6.692-2.4,6.692-6.2,6.692S86.065,32.144,86.065,28.023Zm9.659,0c0-2.819-1.292-4.483-3.464-4.483S88.8,25.217,88.8,28.023c0,2.83,1.29,4.481,3.463,4.481s3.464-1.651,3.464-4.481Z" transform="translate(-11.571 -16.339)" fill="#fff"/>
        <path id="Контур_94" data-name="Контур 94" d="M96.186,21.485h2.557v2.223h.062a3.115,3.115,0,0,1,3.142-2.36,4.135,4.135,0,0,1,.919.1v2.508a3.748,3.748,0,0,0-1.2-.162A2.7,2.7,0,0,0,98.867,26.8v7.747H96.186Z" transform="translate(-7.091 -16.333)" fill="#fff"/>
        <path id="Контур_95" data-name="Контур 95" d="M113,30.717c-.361,2.371-2.67,4-5.624,4-3.8,0-6.158-2.546-6.158-6.63s2.371-6.754,6.045-6.754c3.614,0,5.886,2.482,5.886,6.443v.919h-9.225v.162a3.4,3.4,0,0,0,3.514,3.7,2.955,2.955,0,0,0,3.016-1.837Zm-9.063-3.9h6.53a3.141,3.141,0,0,0-3.2-3.315,3.307,3.307,0,0,0-3.326,3.315Z" transform="translate(-4.864 -16.339)" fill="#fff"/>
      </g>
    </g>
  </g>
  <g id="_Group_4" data-name="&lt;Group&gt;" transform="translate(51.46 12.172)">
    <g id="Сгруппировать_29" data-name="Сгруппировать 29">
      <path id="Контур_96" data-name="Контур 96" d="M38.78,8.734a3.808,3.808,0,0,1,4.05,4.277c0,2.75-1.486,4.331-4.05,4.331H35.671V8.734Zm-1.772,7.391h1.623a2.706,2.706,0,0,0,2.839-3.1A2.714,2.714,0,0,0,38.631,9.95H37.008Z" transform="translate(-35.671 -8.31)" fill="#fff"/>
      <path id="Контур_97" data-name="Контур 97" d="M41.685,13.478a3.077,3.077,0,1,1,6.127,0,3.078,3.078,0,1,1-6.127,0Zm4.808,0c0-1.408-.633-2.232-1.743-2.232s-1.741.823-1.741,2.232.627,2.237,1.741,2.237S46.493,14.892,46.493,13.478Z" transform="translate(-33.015 -7.697)" fill="#fff"/>
      <path id="Контур_98" data-name="Контур 98" d="M53.788,16.691h-1.33l-1.343-4.784h-.1l-1.337,4.784H48.36l-1.791-6.5h1.3l1.164,4.957h.1l1.336-4.957h1.23l1.336,4.957h.1l1.158-4.957h1.282Z" transform="translate(-30.847 -7.659)" fill="#fff"/>
      <path id="Контур_99" data-name="Контур 99" d="M53.854,10.235h1.234v1.032h.1a1.945,1.945,0,0,1,1.939-1.157,2.113,2.113,0,0,1,2.248,2.416v4.205H58.088V12.848c0-1.044-.454-1.563-1.4-1.563a1.49,1.49,0,0,0-1.551,1.646v3.8H53.854Z" transform="translate(-27.623 -7.699)" fill="#fff"/>
      <path id="Контур_100" data-name="Контур 100" d="M59.094,8.437h1.282v9.032H59.094Z" transform="translate(-25.303 -8.437)" fill="#fff"/>
      <path id="Контур_101" data-name="Контур 101" d="M61.222,13.479a3.078,3.078,0,1,1,6.128,0,3.078,3.078,0,1,1-6.128,0Zm4.808,0c0-1.408-.633-2.232-1.743-2.232s-1.741.823-1.741,2.232.627,2.237,1.741,2.237S66.031,14.892,66.031,13.479Z" transform="translate(-24.367 -7.697)" fill="#fff"/>
      <path id="Контур_102" data-name="Контур 102" d="M66.4,14.892c0-1.169.871-1.843,2.416-1.939l1.76-.1v-.561c0-.686-.454-1.074-1.33-1.074-.716,0-1.212.263-1.354.722H66.652c.131-1.116,1.181-1.831,2.654-1.831,1.629,0,2.547.811,2.547,2.183v4.439H70.619v-.913h-.1a2.186,2.186,0,0,1-1.951,1.02A1.962,1.962,0,0,1,66.4,14.892Zm4.176-.555v-.543l-1.586.1c-.895.06-1.3.364-1.3.937s.507.925,1.2.925a1.531,1.531,0,0,0,1.682-1.42Z" transform="translate(-22.069 -7.697)" fill="#fff"/>
      <path id="Контур_103" data-name="Контур 103" d="M71.348,14.218c0-2.053,1.055-3.353,2.7-3.353A2.141,2.141,0,0,1,76.037,12h.1V8.437h1.282v9.032H76.186V16.443h-.1a2.255,2.255,0,0,1-2.04,1.133C72.392,17.576,71.348,16.276,71.348,14.218Zm1.324,0c0,1.378.649,2.207,1.736,2.207s1.748-.841,1.748-2.2-.675-2.207-1.748-2.207-1.736.835-1.736,2.2Z" transform="translate(-19.879 -8.437)" fill="#fff"/>
      <path id="Контур_104" data-name="Контур 104" d="M79.234,13.478a3.077,3.077,0,1,1,6.127,0,3.078,3.078,0,1,1-6.127,0Zm4.808,0c0-1.408-.633-2.232-1.743-2.232s-1.741.823-1.741,2.232.627,2.237,1.741,2.237S84.043,14.892,84.043,13.478Z" transform="translate(-16.395 -7.697)" fill="#fff"/>
      <path id="Контур_105" data-name="Контур 105" d="M84.669,10.235H85.9v1.032H86a1.945,1.945,0,0,1,1.939-1.157,2.113,2.113,0,0,1,2.248,2.416v4.205H88.9V12.848c0-1.044-.454-1.563-1.4-1.563a1.49,1.49,0,0,0-1.551,1.646v3.8H84.669Z" transform="translate(-13.983 -7.699)" fill="#fff"/>
      <path id="Контур_106" data-name="Контур 106" d="M94.225,9.074v1.647h1.407V11.8H94.225v3.34c0,.68.28.978.919.978a4.279,4.279,0,0,0,.489-.03v1.068a4.206,4.206,0,0,1-.7.066c-1.426,0-1.993-.5-1.993-1.754V11.8H91.911v-1.08h1.031V9.074Z" transform="translate(-10.777 -8.155)" fill="#fff"/>
      <path id="Контур_107" data-name="Контур 107" d="M95.7,8.437h1.271v3.58h.1a2,2,0,0,1,1.981-1.164,2.14,2.14,0,0,1,2.237,2.422v4.194h-1.283V13.591c0-1.038-.483-1.563-1.389-1.563a1.518,1.518,0,0,0-1.636,1.647v3.794H95.7Z" transform="translate(-9.098 -8.437)" fill="#fff"/>
      <path id="Контур_108" data-name="Контур 108" d="M106.554,14.975a2.637,2.637,0,0,1-2.815,1.879,2.951,2.951,0,0,1-3-3.353,3,3,0,0,1,3-3.394c1.808,0,2.9,1.235,2.9,3.275v.447h-4.587V13.9a1.717,1.717,0,0,0,1.73,1.861,1.557,1.557,0,0,0,1.545-.788Zm-4.51-2.094h3.281a1.567,1.567,0,0,0-1.6-1.683,1.661,1.661,0,0,0-1.682,1.683Z" transform="translate(-6.882 -7.697)" fill="#fff"/>
    </g>
  </g>
</svg>
